<svg id="Layer_1" data-name="Layer 1" xmlns="http://www.w3.org/2000/svg" width="2.4in" height="2.4in" viewBox="0 0 171.4 173.5"><title>logo</title><rect x="3.8" y="5.2" width="161.5" height="161.54" fill="#fff" stroke="#000" stroke-miterlimit="10" stroke-width="3"/><path d="M47.6,41.6a13.4,13.4,0,0,1,9.2,3.4,1.9,1.9,0,0,1,.2,2.6,1.9,1.9,0,0,1-2.6.2,10,10,0,0,0-6.7-2.6,10.5,10.5,0,0,0,0,21.1,10,10,0,0,0,6.7-2.6,1.9,1.9,0,0,1,2.6.2,1.9,1.9,0,0,1-.2,2.6,13.4,13.4,0,0,1-9.2,3.4,14.1,14.1,0,0,1,0-28.3Z"/><path d="M60.4,60.1a9.4,9.4,0,0,1,9.8-9.7A9.4,9.4,0,0,1,80,60.1a9.8,9.8,0,1,1-19.6,0Zm15.9,0a6.2,6.2,0,0,0-12.3,0,6.2,6.2,0,1,0,12.3,0Z"/><path d="M99.9,97.1a13.4,13.4,0,0,1,9.2,3.4,1.9,1.9,0,0,1,.2,2.6,1.9,1.9,0,0,1-2.6.2,10,10,0,0,0-6.7-2.6,10.5,10.5,0,0,0,0,21.1,10,10,0,0,0,6.7-2.6,1.9,1.9,0,0,1,2.6.2,1.9,1.9,0,0,1-.2,2.6,13.4,13.4,0,0,1-9.2,3.4,14.1,14.1,0,0,1,0-28.3Z"/><path d="M112.8,115.6a9.8,9.8,0,0,1,19.6,0,9.8,9.8,0,1,1-19.6,0Zm15.9,0a6.2,6.2,0,0,0-12.3,0,6.2,6.2,0,1,0,12.3,0Z"/><line x1="53.2" y1="117" x2="118.4" y2="51.8" fill="none" stroke="#000" stroke-miterlimit="10" stroke-width="0.79"/></svg>