<svg id="Layer_1" data-name="Layer 1" xmlns="http://www.w3.org/2000/svg" width="4in" height="4.1in" viewBox="0 0 287.3 296.8"><title>Twitter</title><path d="M288.9,77.1a119.5,119.5,0,0,1-34.3,9.4,60.2,60.2,0,0,0,26.3-33.1,119.2,119.2,0,0,1-38.1,14.5,59.8,59.8,0,0,0-103.3,40.9,62.1,62.1,0,0,0,1.5,13.6A169.7,169.7,0,0,1,17.8,60a59.8,59.8,0,0,0,18.5,79.8,58.9,58.9,0,0,1-27-7.5v.7a59.9,59.9,0,0,0,47.9,58.7,61.7,61.7,0,0,1-15.7,2,60.4,60.4,0,0,1-11.3-1A60,60,0,0,0,86,234.2a120.2,120.2,0,0,1-74.3,25.5A128.3,128.3,0,0,1-2.5,259a169.2,169.2,0,0,0,91.7,26.8c109.9,0,170.1-91.1,170.1-170L259,108a120.4,120.4,0,0,0,29.9-31Zm0,0"/></svg>